<svg width="1509" height="675" viewBox="0 0 1509 675" fill="none" xmlns="http://www.w3.org/2000/svg">
<path d="M1505.57 470.09C1498.05 512.731 1469.94 549.706 1425.43 580.049C1380.92 610.392 1320.05 634.077 1247.13 650.134C1101.28 682.246 907.307 683.822 699.781 647.23C492.254 610.637 310.516 542.812 184.449 462.755C121.414 422.725 72.3189 379.651 40.8721 335.914C9.42665 292.179 -4.34922 247.817 3.16955 205.176C10.6883 162.535 38.8061 125.56 83.3134 95.2176C127.823 64.8739 188.689 41.1889 261.613 25.1325C407.459 -6.97962 601.435 -8.55619 808.961 28.0363C1016.49 64.6288 1198.23 132.454 1324.29 212.512C1387.33 252.541 1436.42 295.615 1467.87 339.352C1499.32 383.087 1513.09 427.449 1505.57 470.09Z" stroke="white"/>
</svg>
